<svg width="96" height="220" viewBox="0 0 96 220" fill="none" xmlns="http://www.w3.org/2000/svg">
<g filter="url(#filter0_f_384_1028)">
<path d="M20 200C20 197.791 21.7909 196 24 196H72C74.2091 196 76 197.791 76 200V200C76 202.209 74.2091 204 72 204H24C21.7909 204 20 202.209 20 200V200Z" fill="#E5E7EB"/>
</g>
<g filter="url(#filter1_dd_384_1028)">
<path d="M28 38H68C69.1046 38 70 38.8954 70 40V194C70 196.761 67.7614 199 65 199H31C28.2386 199 26 196.761 26 194V40C26 38.8954 26.8954 38 28 38Z" stroke="#5ED3D7" stroke-width="2"/>
</g>
<mask id="path-4-inside-1_384_1028" fill="white">
<path d="M38 10C38 8.34315 39.3431 7 41 7H55C56.6569 7 58 8.34315 58 10V37H38V10Z"/>
</mask>
<path d="M36 10C36 7.23858 38.2386 5 41 5H55C57.7614 5 60 7.23858 60 10H56C56 9.44772 55.5523 9 55 9H41C40.4477 9 40 9.44772 40 10H36ZM58 37H38H58ZM36 37V10C36 7.23858 38.2386 5 41 5V9C40.4477 9 40 9.44772 40 10V37H36ZM55 5C57.7614 5 60 7.23858 60 10V37H56V10C56 9.44772 55.5523 9 55 9V5Z" fill="#5ED3D7" mask="url(#path-4-inside-1_384_1028)"/>
<path d="M39 11C39 9.89543 39.8954 9 41 9H56C57.1046 9 58 9.89543 58 11V15H39V11Z" fill="#5ED3D7"/>
<defs>
<filter id="filter0_f_384_1028" x="8" y="184" width="80" height="32" filterUnits="userSpaceOnUse" color-interpolation-filters="sRGB">
<feFlood flood-opacity="0" result="BackgroundImageFix"/>
<feBlend mode="normal" in="SourceGraphic" in2="BackgroundImageFix" result="shape"/>
<feGaussianBlur stdDeviation="6" result="effect1_foregroundBlur_384_1028"/>
</filter>
<filter id="filter1_dd_384_1028" x="5" y="17" width="86" height="203" filterUnits="userSpaceOnUse" color-interpolation-filters="sRGB">
<feFlood flood-opacity="0" result="BackgroundImageFix"/>
<feColorMatrix in="SourceAlpha" type="matrix" values="0 0 0 0 0 0 0 0 0 0 0 0 0 0 0 0 0 0 127 0" result="hardAlpha"/>
<feOffset/>
<feGaussianBlur stdDeviation="7.5"/>
<feColorMatrix type="matrix" values="0 0 0 0 0 0 0 0 0 0 0 0 0 0 0 0 0 0 0.1 0"/>
<feBlend mode="normal" in2="BackgroundImageFix" result="effect1_dropShadow_384_1028"/>
<feColorMatrix in="SourceAlpha" type="matrix" values="0 0 0 0 0 0 0 0 0 0 0 0 0 0 0 0 0 0 127 0" result="hardAlpha"/>
<feOffset/>
<feGaussianBlur stdDeviation="10"/>
<feColorMatrix type="matrix" values="0 0 0 0 1 0 0 0 0 1 0 0 0 0 1 0 0 0 0.5 0"/>
<feBlend mode="normal" in2="effect1_dropShadow_384_1028" result="effect2_dropShadow_384_1028"/>
<feBlend mode="normal" in="SourceGraphic" in2="effect2_dropShadow_384_1028" result="shape"/>
</filter>
</defs>
</svg>
