<svg fill="none" height="36" viewBox="0 0 36 36" width="36" xmlns="http://www.w3.org/2000/svg">
    <path d="M0 18C0 8.05888 8.05888 0 18 0C27.9411 0 36 8.05888 36 18C36 27.9411 27.9411 36 18 36C8.05888 36 0 27.9411 0 18Z" fill="#EFF6FF" />
    <path
        d="M22.1667 17.1667H23.0001C23.6631 17.1667 24.299 17.4301 24.7678 17.899C25.2367 18.3678 25.5001 19.0037 25.5001 19.6667C25.5001 20.3298 25.2367 20.9657 24.7678 21.4345C24.299 21.9034 23.6631 22.1667 23.0001 22.1667H22.1667"
        stroke="#3B82F6" stroke-linecap="round" stroke-linejoin="round" stroke-width="2" />
    <path d="M15.5 18V23" stroke="#3B82F6" stroke-linecap="round" stroke-linejoin="round" stroke-width="2" />
    <path d="M18.8333 18V23" stroke="#3B82F6" stroke-linecap="round" stroke-linejoin="round" stroke-width="2" />
    <path
        d="M19.6667 14.2501C18.8333 14.2501 18.4667 14.6667 17.1667 14.6667C15.8667 14.6667 15.5 14.2501 14.6667 14.2501C13.8333 14.2501 13.2333 14.6667 12.5833 14.6667C12.0308 14.6667 11.5009 14.4473 11.1102 14.0566C10.7195 13.6659 10.5 13.1359 10.5 12.5834C10.5 12.0309 10.7195 11.501 11.1102 11.1103C11.5009 10.7196 12.0308 10.5001 12.5833 10.5001C13.2333 10.5001 13.8917 10.9167 14.6667 10.9167C15.4417 10.9167 15.8667 9.66675 17.1667 9.66675C18.4667 9.66675 18.8333 10.9167 19.6667 10.9167C20.5 10.9167 21.1 10.5001 21.75 10.5001C22.3025 10.5001 22.8324 10.7196 23.2231 11.1103C23.6138 11.501 23.8333 12.0309 23.8333 12.5834C23.8333 13.1359 23.6138 13.6659 23.2231 14.0566C22.8324 14.4473 22.3025 14.6667 21.75 14.6667C21.1 14.6667 20.5 14.2501 19.6667 14.2501Z"
        stroke="#3B82F6" stroke-linecap="round" stroke-linejoin="round" stroke-width="2" />
    <path
        d="M12.1667 14.6667V24.6667C12.1667 25.1088 12.3423 25.5327 12.6549 25.8453C12.9675 26.1578 13.3914 26.3334 13.8334 26.3334H20.5001C20.9421 26.3334 21.366 26.1578 21.6786 25.8453C21.9912 25.5327 22.1667 25.1088 22.1667 24.6667V14.6667"
        stroke="#3B82F6" stroke-linecap="round" stroke-linejoin="round" stroke-width="2" />
</svg>
