<svg fill="none" height="36" viewBox="0 0 36 36" width="36" xmlns="http://www.w3.org/2000/svg">
    <path d="M0 18C0 8.05888 8.05888 0 18 0C27.9411 0 36 8.05888 36 18C36 27.9411 27.9411 36 18 36C8.05888 36 0 27.9411 0 18Z" fill="#EFF6FF" />
    <g clip-path="url(#clip0_391_1056)">
        <path
            d="M15.5425 9H10.1612C9.54982 9 9.08156 9.54374 9.17225 10.1483L10.4668 18.7787C10.4887 18.9244 10.478 19.0732 10.4357 19.2144L9.80111 21.3296C9.7673 21.4423 9.71379 21.5476 9.65215 21.6479C9.44895 21.9782 9 22.8395 9 24C9 25.138 9.35077 25.4262 9.69061 25.9254C9.91413 26.2537 10.2565 26.5083 10.6534 26.5211L24.98 26.9832C25.3059 26.9937 25.6165 26.8446 25.8122 26.5837L26.2505 25.9993C26.6348 25.4869 26.445 24.7503 25.8609 24.4874L17.5619 20.7529C17.2174 20.5978 16.9896 20.2618 16.9732 19.8844L16.5416 9.95656C16.5183 9.42168 16.0779 9 15.5425 9Z"
            stroke="#3B82F6" stroke-width="2" />
        <path d="M13 20L14 23" stroke="#3B82F6" stroke-linecap="round" stroke-width="2" />
    </g>
    <defs>
        <clipPath id="clip0_391_1056">
            <rect fill="white" height="20" transform="translate(8 8)" width="20" />
        </clipPath>
    </defs>
</svg>
