<svg width="36" height="36" viewBox="0 0 36 36" fill="none" xmlns="http://www.w3.org/2000/svg">
<path d="M0 18C0 8.05887 8.05887 0 18 0V0C27.9411 0 36 8.05887 36 18V18C36 27.9411 27.9411 36 18 36V36C8.05887 36 0 27.9411 0 18V18Z" fill="#EFF6FF"/>
<path d="M27 18.5C27 23.1467 23.0195 27 18 27C12.9805 27 9 23.1467 9 18.5C9 13.8533 12.9805 10 18 10C23.0195 10 27 13.8533 27 18.5Z" fill="#EFF6FF" stroke="#3B82F6" stroke-width="2"/>
<path d="M18.0001 15.25L26.6604 28H9.33984L18.0001 15.25Z" fill="#EFF6FF"/>
<path d="M22 18L18 24" stroke="#3B82F6" stroke-width="2" stroke-linecap="round"/>
<path d="M23.1727 16.3994L23.29 20.0972L19.7002 17.6759L23.1727 16.3994Z" fill="#3B82F6"/>
</svg>
