<svg fill="none" height="36" viewBox="0 0 36 36" width="36" xmlns="http://www.w3.org/2000/svg">
    <path d="M0 18C0 8.05888 8.05888 0 18 0C27.9411 0 36 8.05888 36 18C36 27.9411 27.9411 36 18 36C8.05888 36 0 27.9411 0 18Z" fill="#EFF6FF" />
    <path
        d="M14.0875 14.1586C10.5808 15.5604 9.28292 16.3137 8.51942 17.7295C8.19728 18.3269 8.69536 19 9.37405 19H17.7297H25.989C26.815 19 27.2804 18.0558 26.7139 17.4546C25.4729 16.1378 24.2254 15.369 21.9141 14.2012C21.6603 14.0729 21.3624 14.0599 21.098 14.1647L18.1286 15.3419C17.8739 15.4428 17.589 15.4349 17.3403 15.3199L14.8754 14.1799C14.627 14.065 14.3415 14.057 14.0875 14.1586Z"
        stroke="#3B82F6" stroke-width="2" />
    <path d="M8.43237 18C8.97291 20.5 14.4864 23 17.7297 23C20.9729 23 26.4864 20.5 27.027 18" stroke="#3B82F6" stroke-width="2" />
</svg>
