<svg fill="none" height="36" viewBox="0 0 36 36" width="36" xmlns="http://www.w3.org/2000/svg">
    <path d="M0 18C0 8.05887 8.05887 0 18 0V0C27.9411 0 36 8.05887 36 18V18C36 27.9411 27.9411 36 18 36V36C8.05887 36 0 27.9411 0 18V18Z"
        fill="#EFF6FF" />
    <path
        d="M9 11.5C10.3161 15.9653 12.2837 17.9462 15.2841 21.7271C15.4238 21.903 15.5008 22.1231 15.4973 22.3477C15.4585 24.8468 15.0217 26.1301 15.5 29M15 8C17.8699 11.553 19.5216 13.2611 22.5 16M22.5 16C22.9608 17.0916 23.1917 17.7352 23.5 19M22.5 16C25.698 15.4489 26.497 14.3792 26 11M17 18C18.6441 19.5959 19.2755 20.5609 19.5 22.5"
        stroke="#3B82F6" stroke-linecap="round" stroke-width="2" />
</svg>
